<?xml version="1.0" encoding="UTF-8"?>
<svg width="10px" height="18px" viewBox="0 0 10 18" version="1.1" xmlns="http://www.w3.org/2000/svg" xmlns:xlink="http://www.w3.org/1999/xlink">
    <!-- Generator: Sketch 55.2 (78181) - https://sketchapp.com -->
    <title>Facebook</title>
    <desc>Created with Sketch.</desc>
    <g id="Example" stroke="none" stroke-width="1" fill="none" fill-rule="evenodd">
        <g id="Home-Page-Simple" transform="translate(-1415.000000, -3690.000000)" fill="#FFFFFF" fill-rule="nonzero">
            <g id="Footer" transform="translate(0.000000, 3391.000000)">
                <g id="Icons/20x20/Social-Network/White/Facebook" transform="translate(1410.000000, 298.000000)">
                    <path d="M14.6234294,1.0037452 L12.2248841,1 C9.5302007,1 7.78877793,2.73870978 7.78877793,5.42982429 L7.78877793,7.4722699 L5.37714792,7.4722699 C5.16875445,7.4722699 5,7.63668425 5,7.83948691 L5,10.7987578 C5,11.0015605 5.16894687,11.1657876 5.37714792,11.1657876 L7.78877793,11.1657876 L7.78877793,18.6329703 C7.78877793,18.8357729 7.95753238,19 8.16592584,19 L11.312417,19 C11.5208105,19 11.6895649,18.8355857 11.6895649,18.6329703 L11.6895649,11.1657876 L14.5093229,11.1657876 C14.7177163,11.1657876 14.8864708,11.0015605 14.8864708,10.7987578 L14.8876253,7.83948691 C14.8876253,7.74211167 14.8477939,7.64885615 14.7771749,7.57994445 C14.7065558,7.51103274 14.6103446,7.4722699 14.510285,7.4722699 L11.6895649,7.4722699 L11.6895649,5.74086327 C11.6895649,4.9086795 11.8933403,4.48622078 13.0072736,4.48622078 L14.6230445,4.485659 C14.8312456,4.485659 15,4.32124466 15,4.11862926 L15,1.37077494 C15,1.16834681 14.831438,1.00411972 14.6234294,1.0037452 Z" id="Shape-Copy"></path>
                </g>
            </g>
        </g>
    </g>
</svg>