<?xml version="1.0" encoding="UTF-8"?>
<svg width="117px" height="25px" viewBox="0 0 117 25" version="1.1" xmlns="http://www.w3.org/2000/svg" xmlns:xlink="http://www.w3.org/1999/xlink">
    <!-- Generator: Sketch 55.2 (78181) - https://sketchapp.com -->
    <title>Starcier-Logo</title>
    <desc>Created with Sketch.</desc>
    <g id="Example" stroke="none" stroke-width="1" fill="none" fill-rule="evenodd">
        <g id="Home-Page-Simple" transform="translate(-91.000000, -97.000000)" fill="#FFFFFF" fill-rule="nonzero">
            <g id="Header" transform="translate(91.000000, 97.000000)">
                <g id="Starcier-Logo" transform="translate(0.258138, 0.608000)">
                    <path d="M4.86523079,15.808 C4.86523079,16.5760038 5.00389607,17.226664 5.28123079,17.76 C5.55856551,18.293336 5.92656183,18.7253317 6.38523079,19.056 C6.84389975,19.3866683 7.38256103,19.6319992 8.00123079,19.792 C8.61990055,19.9520008 9.25989415,20.032 9.92123079,20.032 C10.369233,20.032 10.8492282,19.994667 11.3612308,19.92 C11.8732334,19.845333 12.3532286,19.7013344 12.8012308,19.488 C13.249233,19.2746656 13.6225626,18.9813352 13.9212308,18.608 C14.219899,18.2346648 14.3692308,17.7600029 14.3692308,17.184 C14.3692308,16.5653302 14.1718994,16.0640019 13.7772308,15.68 C13.3825622,15.2959981 12.865234,14.9760013 12.2252308,14.72 C11.5852276,14.4639987 10.8599015,14.240001 10.0492308,14.048 C9.23856007,13.855999 8.41723495,13.6426678 7.58523079,13.408 C6.73189319,13.1946656 5.89990151,12.9333349 5.08923079,12.624 C4.27856007,12.3146651 3.55323399,11.9146691 2.91323079,11.424 C2.27322759,10.9333309 1.75589943,10.3200037 1.36123079,9.584 C0.966562152,8.84799632 0.769230792,7.95733856 0.769230792,6.912 C0.769230792,5.7386608 1.01989495,4.72000432 1.52123079,3.856 C2.02256663,2.99199568 2.67856007,2.27200288 3.48923079,1.696 C4.29990151,1.11999712 5.21722567,0.69333472 6.24123079,0.416 C7.26523591,0.13866528 8.28922567,-1.77635684e-15 9.31323079,-1.77635684e-15 C10.5079034,-1.77635684e-15 11.6545586,0.133332 12.7532308,0.4 C13.851903,0.666668 14.8278932,1.09866368 15.6812308,1.696 C16.5345684,2.29333632 17.211895,3.05599536 17.7132308,3.984 C18.2145666,4.91200464 18.4652308,6.03732672 18.4652308,7.36 L13.6012308,7.36 C13.5585639,6.67732992 13.4145654,6.11200224 13.1692308,5.664 C12.9238962,5.21599776 12.5985662,4.86400128 12.1932308,4.608 C11.7878954,4.35199872 11.3239001,4.1706672 10.8012308,4.064 C10.2785615,3.9573328 9.70790055,3.904 9.08923079,3.904 C8.68389543,3.904 8.27856615,3.94666624 7.87323079,4.032 C7.46789543,4.11733376 7.09989911,4.2666656 6.76923079,4.48 C6.43856247,4.6933344 6.16656519,4.9599984 5.95323079,5.28 C5.73989639,5.6000016 5.63323079,6.00533088 5.63323079,6.496 C5.63323079,6.94400224 5.71856327,7.30666528 5.88923079,7.584 C6.05989831,7.86133472 6.39589495,8.11733216 6.89723079,8.352 C7.39856663,8.58666784 8.09189303,8.82133216 8.97723079,9.056 C9.86256855,9.29066784 11.0198903,9.58933152 12.4492308,9.952 C12.8758996,10.0373338 13.4678937,10.1919989 14.2252308,10.416 C14.9825679,10.6400011 15.7345604,10.9973309 16.4812308,11.488 C17.2279012,11.9786691 17.8732281,12.6346626 18.4172308,13.456 C18.9612335,14.2773374 19.2332308,15.3279936 19.2332308,16.608 C19.2332308,17.6533386 19.0305662,18.6239955 18.6252308,19.52 C18.2198954,20.4160045 17.6172348,21.1893301 16.8172308,21.84 C16.0172268,22.4906699 15.0252367,22.9973315 13.8412308,23.36 C12.6572249,23.7226685 11.2865719,23.904 9.72923079,23.904 C8.47055783,23.904 7.24923671,23.7493349 6.06523079,23.44 C4.88122487,23.1306651 3.83590199,22.6453366 2.92923079,21.984 C2.02255959,21.3226634 1.30256679,20.4800051 0.769230792,19.456 C0.235894792,18.4319949 -0.020102648,17.216007 0.00123079199,15.808 L4.86523079,15.808 Z M27.1523887,6.848 L30.4803887,6.848 L30.4803887,9.888 L27.1523887,9.888 L27.1523887,18.08 C27.1523887,18.8480038 27.2803874,19.3599987 27.5363887,19.616 C27.79239,19.8720013 28.3043848,20 29.0723887,20 C29.32839,20 29.5737208,19.9893334 29.8083887,19.968 C30.0430565,19.9466666 30.2670543,19.9146669 30.4803887,19.872 L30.4803887,23.392 C30.0963868,23.4560003 29.6697244,23.4986666 29.2003887,23.52 C28.731053,23.5413334 28.2723909,23.552 27.8243887,23.552 C27.1203852,23.552 26.4537252,23.5040005 25.8243887,23.408 C25.1950522,23.3119995 24.6403911,23.1253347 24.1603887,22.848 C23.6803863,22.5706653 23.3017234,22.1760026 23.0243887,21.664 C22.747054,21.1519974 22.6083887,20.4800042 22.6083887,19.648 L22.6083887,9.888 L19.8563887,9.888 L19.8563887,6.848 L22.6083887,6.848 L22.6083887,1.888 L27.1523887,1.888 L27.1523887,6.848 Z M32.1275466,11.936 C32.1915469,10.869328 32.4582109,9.98400352 32.9275466,9.28 C33.3968823,8.57599648 33.9942096,8.0106688 34.7195466,7.584 C35.4448835,7.1573312 36.2608754,6.85333424 37.1675466,6.672 C38.0742178,6.49066576 38.9862087,6.4 39.9035466,6.4 C40.7355507,6.4 41.578209,6.45866608 42.4315466,6.576 C43.2848842,6.69333392 44.0635431,6.92266496 44.7675466,7.264 C45.4715501,7.60533504 46.0475443,8.07999696 46.4955466,8.688 C46.9435488,9.29600304 47.1675466,10.1013283 47.1675466,11.104 L47.1675466,19.712 C47.1675466,20.4586704 47.2102128,21.1733299 47.2955466,21.856 C47.3808803,22.5386701 47.5302122,23.050665 47.7435466,23.392 L43.1355466,23.392 C43.0502128,23.1359987 42.9808802,22.874668 42.9275466,22.608 C42.874213,22.341332 42.83688,22.0693347 42.8155466,21.792 C42.0902096,22.5386704 41.2368848,23.0613318 40.2555466,23.36 C39.2742083,23.6586682 38.2715517,23.808 37.2475466,23.808 C36.4582093,23.808 35.7222167,23.712001 35.0395466,23.52 C34.3568765,23.327999 33.7595491,23.0293354 33.2475466,22.624 C32.735544,22.2186646 32.335548,21.7066698 32.0475466,21.088 C31.7595451,20.4693302 31.6155466,19.7333376 31.6155466,18.88 C31.6155466,17.9413286 31.7808783,17.168003 32.1115466,16.56 C32.4422149,15.951997 32.8688773,15.4666685 33.3915466,15.104 C33.9142159,14.7413315 34.5115432,14.4693342 35.1835466,14.288 C35.8555499,14.1066658 36.5328765,13.9626672 37.2155466,13.856 C37.8982167,13.7493328 38.5702099,13.6640003 39.2315466,13.6 C39.8928832,13.5359997 40.479544,13.4400006 40.9915466,13.312 C41.5035491,13.1839994 41.9088784,12.9973346 42.2075466,12.752 C42.5062147,12.5066654 42.64488,12.1493357 42.6235466,11.68 C42.6235466,11.1893309 42.5435474,10.8000014 42.3835466,10.512 C42.2235458,10.2239986 42.0102146,10.0000008 41.7435466,9.84 C41.4768786,9.6799992 41.1675483,9.5733336 40.8155466,9.52 C40.4635448,9.4666664 40.0848819,9.44 39.6795466,9.44 C38.7835421,9.44 38.0795491,9.63199808 37.5675466,10.016 C37.055544,10.4 36.7568803,11.0399955 36.6715466,11.936 L32.1275466,11.936 Z M42.6235466,15.296 C42.4315456,15.4666675 42.191548,15.5999995 41.9035466,15.696 C41.6155451,15.7920005 41.3062149,15.8719997 40.9755466,15.936 C40.6448783,16.0000003 40.2982151,16.0533331 39.9355466,16.096 C39.5728781,16.1386669 39.2102151,16.1919997 38.8475466,16.256 C38.5062115,16.3200003 38.1702149,16.4053328 37.8395466,16.512 C37.5088783,16.6186672 37.2208811,16.7626658 36.9755466,16.944 C36.730212,17.1253342 36.5328807,17.3546653 36.3835466,17.632 C36.2342125,17.9093347 36.1595466,18.2613312 36.1595466,18.688 C36.1595466,19.0933354 36.2342125,19.4346653 36.3835466,19.712 C36.5328807,19.9893347 36.7355453,20.2079992 36.9915466,20.368 C37.2475479,20.5280008 37.5462115,20.6399997 37.8875466,20.704 C38.2288816,20.7680003 38.5808781,20.8 38.9435466,20.8 C39.8395511,20.8 40.5328775,20.6506682 41.0235466,20.352 C41.5142157,20.0533318 41.8768787,19.6960021 42.1115466,19.28 C42.3462144,18.8639979 42.490213,18.4426688 42.5435466,18.016 C42.5968802,17.5893312 42.6235466,17.2480013 42.6235466,16.992 L42.6235466,15.296 Z M50.3507045,6.848 L54.6707045,6.848 L54.6707045,9.92 L54.7347045,9.92 C54.9480389,9.40799744 55.236036,8.93333552 55.5987045,8.496 C55.961373,8.05866448 56.3773688,7.68533488 56.8467045,7.376 C57.3160402,7.06666512 57.8173685,6.82666752 58.3507045,6.656 C58.8840405,6.48533248 59.4387016,6.4 60.0147045,6.4 C60.3133726,6.4 60.644036,6.4533328 61.0067045,6.56 L61.0067045,10.784 C60.7933701,10.7413331 60.5373726,10.7040002 60.2387045,10.672 C59.9400363,10.6399998 59.6520392,10.624 59.3747045,10.624 C58.5427003,10.624 57.8387074,10.7626653 57.2627045,11.04 C56.6867016,11.3173347 56.2227062,11.6959976 55.8707045,12.176 C55.5187027,12.6560024 55.2680386,13.2159968 55.1187045,13.856 C54.9693704,14.4960032 54.8947045,15.1893296 54.8947045,15.936 L54.8947045,23.392 L50.3507045,23.392 L50.3507045,6.848 Z M73.1498624,12.672 C72.8511942,10.7733238 71.7312054,9.824 69.7898624,9.824 C69.0645254,9.824 68.4565315,9.98933168 67.9658624,10.32 C67.4751933,10.6506683 67.0751973,11.0773307 66.7658624,11.6 C66.4565275,12.1226693 66.237863,12.6986635 66.1098624,13.328 C65.9818617,13.9573365 65.9178624,14.5813302 65.9178624,15.2 C65.9178624,15.7973363 65.9818617,16.4053302 66.1098624,17.024 C66.237863,17.6426698 66.4458609,18.2026642 66.7338624,18.704 C67.0218638,19.2053358 67.4111933,19.6159984 67.9018624,19.936 C68.3925315,20.2560016 68.9898589,20.416 69.6938624,20.416 C70.7818678,20.416 71.6191928,20.112003 72.2058624,19.504 C72.792532,18.895997 73.1605283,18.0800051 73.3098624,17.056 L77.6938624,17.056 C77.3951942,19.2533443 76.5418694,20.9279942 75.1338624,22.08 C73.7258553,23.2320058 71.9232067,23.808 69.7258624,23.808 C68.4885229,23.808 67.3525342,23.6000021 66.3178624,23.184 C65.2831905,22.7679979 64.4031993,22.1866704 63.6778624,21.44 C62.9525254,20.6933296 62.3871977,19.8026718 61.9818624,18.768 C61.576527,17.7333282 61.3738624,16.5973395 61.3738624,15.36 C61.3738624,14.0799936 61.5605272,12.8906722 61.9338624,11.792 C62.3071976,10.6933278 62.8565254,9.744004 63.5818624,8.944 C64.3071993,8.143996 65.1925238,7.52000224 66.2378624,7.072 C67.2832009,6.62399776 68.4778557,6.4 69.8218624,6.4 C70.8032006,6.4 71.7471912,6.52799872 72.6538624,6.784 C73.5605336,7.04000128 74.3711921,7.42933072 75.0858624,7.952 C75.8005326,8.47466928 76.3818601,9.12532944 76.8298624,9.904 C77.2778646,10.6826706 77.5338621,11.605328 77.5978624,12.672 L73.1498624,12.672 Z M84.5890203,4.288 L80.0450203,4.288 L80.0450203,0.544 L84.5890203,0.544 L84.5890203,4.288 Z M80.0450203,6.848 L84.5890203,6.848 L84.5890203,23.392 L80.0450203,23.392 L80.0450203,6.848 Z M98.9721782,13.344 C98.7588438,12.1919942 98.3801809,11.3173363 97.8361782,10.72 C97.2921754,10.1226637 96.465517,9.824 95.3561782,9.824 C94.6308412,9.824 94.0281806,9.94666544 93.5481782,10.192 C93.0681758,10.4373346 92.6841796,10.7413315 92.3961782,11.104 C92.1081767,11.4666685 91.9055121,11.8506646 91.7881782,12.256 C91.6708442,12.6613354 91.6015116,13.0239984 91.5801782,13.344 L98.9721782,13.344 Z M91.5801782,16.224 C91.6441785,17.6960074 92.0175081,18.7626634 92.7001782,19.424 C93.3828482,20.0853366 94.3641718,20.416 95.6441782,20.416 C96.5615161,20.416 97.3508415,20.186669 98.0121782,19.728 C98.6735148,19.269331 99.0788441,18.7840026 99.2281782,18.272 L103.228178,18.272 C102.588175,20.2560099 101.606851,21.6746624 100.284178,22.528 C98.9615049,23.3813376 97.3615209,23.808 95.4841782,23.808 C94.1828383,23.808 93.0095167,23.6000021 91.9641782,23.184 C90.9188396,22.7679979 90.0335151,22.1760038 89.3081782,21.408 C88.5828412,20.6399962 88.0228468,19.722672 87.6281782,18.656 C87.2335095,17.589328 87.0361782,16.4160064 87.0361782,15.136 C87.0361782,13.8986605 87.2388428,12.746672 87.6441782,11.68 C88.0495135,10.613328 88.6255078,9.69067056 89.3721782,8.912 C90.1188486,8.13332944 91.0095063,7.52000224 92.0441782,7.072 C93.07885,6.62399776 94.2255052,6.4 95.4841782,6.4 C96.8921852,6.4 98.1188396,6.67199728 99.1641782,7.216 C100.209517,7.76000272 101.068175,8.49066208 101.740178,9.408 C102.412182,10.3253379 102.89751,11.3706608 103.196178,12.544 C103.494846,13.7173392 103.601512,14.9439936 103.516178,16.224 L91.5801782,16.224 Z M105.867336,6.848 L110.187336,6.848 L110.187336,9.92 L110.251336,9.92 C110.46467,9.40799744 110.752668,8.93333552 111.115336,8.496 C111.478005,8.05866448 111.894,7.68533488 112.363336,7.376 C112.832672,7.06666512 113.334,6.82666752 113.867336,6.656 C114.400672,6.48533248 114.955333,6.4 115.531336,6.4 C115.830004,6.4 116.160668,6.4533328 116.523336,6.56 L116.523336,10.784 C116.310002,10.7413331 116.054004,10.7040002 115.755336,10.672 C115.456668,10.6399998 115.168671,10.624 114.891336,10.624 C114.059332,10.624 113.355339,10.7626653 112.779336,11.04 C112.203333,11.3173347 111.739338,11.6959976 111.387336,12.176 C111.035334,12.6560024 110.78467,13.2159968 110.635336,13.856 C110.486002,14.4960032 110.411336,15.1893296 110.411336,15.936 L110.411336,23.392 L105.867336,23.392 L105.867336,6.848 Z" id="Starcier"></path>
                </g>
            </g>
        </g>
    </g>
</svg>