<?xml version="1.0" encoding="UTF-8"?>
<svg width="17px" height="14px" viewBox="0 0 17 14" version="1.1" xmlns="http://www.w3.org/2000/svg" xmlns:xlink="http://www.w3.org/1999/xlink">
    <!-- Generator: Sketch 55.2 (78181) - https://sketchapp.com -->
    <title>Twitter</title>
    <desc>Created with Sketch.</desc>
    <g id="Example" stroke="none" stroke-width="1" fill="none" fill-rule="evenodd">
        <g id="Home-Page-Simple" transform="translate(-1492.000000, -3692.000000)" fill="#FFFFFF" fill-rule="nonzero">
            <g id="Footer" transform="translate(0.000000, 3391.000000)">
                <g id="Icons/20x20/Social-Network/White/Twitter" transform="translate(1490.000000, 298.000000)">
                    <path d="M18.9801478,4.66757199 C18.9557719,4.63852634 18.9155516,4.62866843 18.8812512,4.64451151 C18.3730133,4.8724758 17.83831,5.03636364 17.2875883,5.13318245 C17.8722622,4.68852006 18.3078947,4.07275242 18.5312826,3.36667924 C18.5420777,3.33288067 18.5309344,3.29591349 18.5035986,3.27390922 C18.4760886,3.25190494 18.4379577,3.24908839 18.407836,3.26721992 C17.7493379,3.66206463 17.0361681,3.9403747 16.2871308,4.0947567 C15.6234093,3.3983654 14.6966019,3 13.7374093,3 C11.7866391,3 10.1997666,4.60437571 10.1997666,6.57648686 C10.1997666,6.8150132 10.2225755,7.0512511 10.2678451,7.28062366 C7.56594821,7.1119829 5.039558,5.8005281 3.32175195,3.67033824 C3.30416647,3.64851 3.27752707,3.63636364 3.24966887,3.63918018 C3.22198479,3.64129259 3.19726064,3.65713567 3.18333154,3.68125236 C2.86992683,4.22484597 2.70434467,4.8467748 2.70434467,5.47944172 C2.70434467,6.57595876 3.19708652,7.60118194 4.03614058,8.27768138 C3.60416442,8.22522319 3.18228686,8.08774048 2.80184836,7.87421099 C2.77625364,7.85960015 2.74439083,7.85977619 2.71879611,7.87473909 C2.69320139,7.88952597 2.67700881,7.9169873 2.67631236,7.94691311 L2.67596413,7.99268201 C2.67596413,9.56748397 3.70236456,10.9502326 5.16265641,11.4093298 C4.77803918,11.471998 4.37897052,11.4677732 3.98669228,11.3920785 C3.95778941,11.3866214 3.92749362,11.3966554 3.90764465,11.4191877 C3.8879698,11.4417201 3.88135348,11.4732302 3.89040739,11.5017478 C4.32830342,12.8836162 5.54501016,13.8526845 6.96125123,13.973444 C5.77988958,14.84851 4.38349747,15.3095436 2.90805773,15.3095436 C2.6362662,15.3095436 2.36255942,15.2931724 2.09442428,15.2613102 C2.05611926,15.2569093 2.01816246,15.2799698 2.00492982,15.317113 C1.99169718,15.3546083 2.00580039,15.3965045 2.038882,15.4178046 C3.63550489,16.4530617 5.48163276,17 7.37790539,17 C13.580707,17 17.28724,11.9059223 17.28724,6.98118949 C17.28724,6.84405885 17.2846283,6.70763234 17.2792308,6.5715579 C17.9483499,6.07672576 18.5227511,5.47099208 18.9858936,4.76984786 C19.0066131,4.73851377 19.0043496,4.69679366 18.9801478,4.66757199 Z" id="Shape-Copy-3"></path>
                </g>
            </g>
        </g>
    </g>
</svg>